<?xml version="1.0" standalone="no"?>
<!DOCTYPE svg PUBLIC "-//W3C//DTD SVG 20010904//EN"
 "http://www.w3.org/TR/2001/REC-SVG-20010904/DTD/svg10.dtd">
<svg version="1.0" xmlns="http://www.w3.org/2000/svg"
 width="594.000000pt" height="557.000000pt" viewBox="0 0 594.000000 557.000000"
 preserveAspectRatio="xMidYMid meet">
<metadata>
Created by potrace 1.16, written by Peter Selinger 2001-2019
</metadata>
<g transform="translate(0.000000,557.000000) scale(0.100000,-0.100000)"
fill="#000000" stroke="none">
<path d="M1850 4440 c-64 -22 -120 -77 -138 -138 -16 -53 -17 -1988 -1 -2046
6 -21 28 -58 50 -81 66 -71 88 -75 420 -75 l288 0 42 -55 c23 -30 45 -55 49
-55 4 0 23 24 43 54 l35 53 70 5 c119 9 197 71 221 178 6 25 11 125 11 223 0
177 0 177 -22 177 -13 0 -40 3 -60 6 l-38 7 0 -203 0 -202 -34 -34 -34 -34
-437 0 -437 0 -29 29 -29 29 0 914 c0 1004 -4 940 60 973 24 13 91 15 410 15
l380 0 0 140 0 140 -382 0 c-349 -1 -388 -2 -438 -20z"/>
<path d="M2182 4038 c-16 -16 -15 -23 4 -42 12 -13 39 -16 125 -16 61 0 119 5
130 10 23 13 25 46 3 54 -30 12 -249 7 -262 -6z"/>
<path d="M5280 1429 l0 -171 -41 37 c-83 75 -190 101 -294 70 -48 -13 -70 -28
-120 -78 -71 -72 -95 -127 -95 -222 0 -86 23 -146 81 -209 66 -73 130 -101
229 -100 128 0 226 61 278 171 l27 58 3 308 3 307 -35 0 -36 0 0 -171z m-133
-140 c91 -44 140 -138 130 -248 -10 -120 -91 -204 -207 -218 -78 -9 -137 12
-195 71 -93 94 -101 226 -21 331 61 80 198 110 293 64z"/>
<path d="M2850 1170 l0 -420 35 0 35 0 0 420 0 420 -35 0 -35 0 0 -420z"/>
<path d="M2990 1275 c0 -187 4 -334 11 -364 8 -37 22 -64 52 -97 47 -51 83
-63 183 -64 l61 0 5 193 c4 170 7 197 26 233 29 57 95 114 132 114 21 0 35 8
46 26 21 31 9 46 -37 47 -75 2 -163 -67 -208 -162 -24 -52 -26 -67 -29 -225
l-3 -168 -41 6 c-55 9 -75 21 -98 59 -18 28 -20 51 -20 200 l0 167 70 0 70 0
0 30 0 30 -70 0 -70 0 0 145 0 145 -40 0 -40 0 0 -315z"/>
<path d="M1673 1362 c-100 -36 -167 -109 -198 -217 -41 -140 29 -296 163 -362
76 -37 192 -39 264 -4 58 28 122 92 150 151 30 61 36 170 13 239 -21 65 -99
151 -161 181 -66 30 -165 36 -231 12z m162 -63 c24 -6 62 -27 85 -46 135 -116
112 -336 -43 -409 -164 -76 -337 35 -337 217 0 111 59 200 157 235 47 16 82
17 138 3z"/>
<path d="M3725 1371 c-88 -23 -156 -81 -201 -171 -24 -46 -28 -68 -29 -135 0
-68 4 -89 28 -137 32 -66 107 -138 163 -158 28 -9 112 -15 292 -17 l252 -5 1
164 c1 264 12 307 90 353 47 28 170 28 215 1 59 -35 66 -67 72 -303 l5 -213
34 0 35 0 -3 218 -4 219 -30 58 c-25 50 -39 63 -84 87 -44 23 -66 28 -125 28
-102 0 -143 -15 -197 -69 -67 -66 -79 -115 -79 -313 l0 -159 -223 3 -224 3
-41 27 c-50 33 -93 104 -100 164 l-5 44 272 0 272 0 -6 38 c-29 168 -135 270
-290 278 -33 2 -73 0 -90 -5z m191 -92 c48 -25 93 -81 109 -136 l6 -23 -225 0
c-252 0 -243 -3 -207 68 59 114 195 154 317 91z"/>
<path d="M629 1340 c-52 -27 -107 -96 -124 -154 -11 -36 -15 -102 -15 -243 l0
-193 34 0 35 0 3 213 c3 203 4 214 27 251 34 54 74 76 141 76 67 0 118 -30
146 -87 16 -33 19 -67 22 -245 l4 -208 34 0 34 0 0 165 c0 179 10 247 44 297
31 46 91 78 148 78 62 0 94 -16 120 -59 21 -33 23 -50 26 -258 l4 -223 35 0
35 0 -4 228 c-3 221 -4 229 -28 277 -21 39 -37 55 -80 78 -49 26 -62 28 -127
24 -83 -5 -137 -33 -176 -92 -12 -19 -25 -35 -29 -35 -3 0 -16 17 -28 37 -38
65 -91 91 -185 92 -40 0 -72 -6 -96 -19z"/>
<path d="M2070 1343 c1 -17 268 -584 275 -584 6 0 275 575 275 588 0 2 -17 3
-37 1 l-37 -3 -99 -215 c-54 -118 -100 -216 -101 -218 -2 -1 -48 95 -104 215
l-100 218 -36 3 c-20 2 -36 0 -36 -5z"/>
<path d="M2680 1050 l0 -300 35 0 35 0 0 300 0 300 -35 0 -35 0 0 -300z"/>
</g>
</svg>
